<svg width="76" height="76" viewBox="0 0 76 76" fill="none" xmlns="http://www.w3.org/2000/svg">
<path d="M0 0H76V76H0V0Z" fill="#F7DF1E"/>
<path d="M19.9831 63.5113L25.7989 59.9916C26.9211 61.9809 27.9417 63.6642 30.39 63.6642C32.7368 63.6642 34.2168 62.7463 34.2168 59.1754V34.8917H41.3587V59.2764C41.3587 66.6736 37.0225 70.0408 30.6961 70.0408C24.9828 70.0408 21.6664 67.0818 19.9828 63.5107" fill="black"/>
<path d="M45.2382 62.7456L51.0534 59.3788C52.5844 61.8788 54.574 63.7152 58.0938 63.7152C61.0533 63.7152 62.9403 62.2356 62.9403 60.1949C62.9403 57.7463 61.0017 56.8788 57.7367 55.4508L55.9515 54.6849C50.7987 52.4919 47.3808 49.7369 47.3808 43.9211C47.3808 38.5643 51.4619 34.4829 57.8391 34.4829C62.3795 34.4829 65.6445 36.0646 67.991 40.1968L62.4299 43.7682C61.2053 41.5746 59.8795 40.7074 57.8388 40.7074C55.747 40.7074 54.4206 42.0339 54.4206 43.7682C54.4206 45.9108 55.747 46.7785 58.8078 48.105L60.5932 48.87C66.6643 51.4721 70.0822 54.1247 70.0822 60.0931C70.0822 66.5216 65.0318 70.0413 58.2467 70.0413C51.6148 70.0413 47.3294 66.8784 45.2379 62.7459" fill="black"/>
</svg>
