<svg width="57" height="76" viewBox="0 0 57 76" fill="none" xmlns="http://www.w3.org/2000/svg">
<path d="M31.5677 66.8711C31.6337 67.6133 31.6667 68.2812 31.6667 68.875C31.6667 70.8542 31.3533 72.5365 30.7266 73.9219C30.0998 75.3073 29.3576 76 28.5 76C27.6424 76 26.9002 75.3073 26.2734 73.9219C25.6467 72.5365 25.3333 70.8542 25.3333 68.875C25.3333 68.2318 25.3993 67.5638 25.5313 66.8711C24.4757 65.9805 22.6615 64.6693 20.0885 62.9375C17.5156 61.2057 15.2231 59.5605 13.2109 58.002C11.1988 56.4434 9.10417 54.5508 6.92708 52.3242C4.75 50.0977 3.05122 47.5618 1.83073 44.7168C0.610243 41.8717 0 38.8411 0 35.625C0 32.2604 0.626736 29.0195 1.88021 25.9023C3.13368 22.7852 4.71701 20.1257 6.63021 17.9238C8.5434 15.722 10.6875 13.6068 13.0625 11.5781C15.4375 9.54948 17.6476 7.87956 19.6927 6.56836C21.7378 5.25716 23.6016 4.00781 25.2839 2.82031C26.9661 1.63281 28.0382 0.692708 28.5 0C28.9618 0.692708 30.0339 1.63281 31.7161 2.82031C33.3984 4.00781 35.2622 5.25716 37.3073 6.56836C39.3524 7.87956 41.5625 9.54948 43.9375 11.5781C46.3125 13.6068 48.4566 15.722 50.3698 17.9238C52.283 20.1257 53.8663 22.7852 55.1198 25.9023C56.3733 29.0195 57 32.2604 57 35.625C57 38.8411 56.3898 41.8717 55.1693 44.7168C53.9488 47.5618 52.25 50.0977 50.0729 52.3242C47.8958 54.5508 45.8012 56.4434 43.7891 58.002C41.7769 59.5605 39.4844 61.2057 36.9115 62.9375C34.3385 64.6693 32.5573 65.9805 31.5677 66.8711Z" fill="#458248"/>
</svg>
