<svg width="40" height="40" viewBox="0 0 45 35" fill="none" xmlns="http://www.w3.org/2000/svg">
<path d="M45 4.15164C43.3451 4.85321 41.5674 5.32725 39.6985 5.54151C41.6269 4.43756 43.0696 2.70008 43.7574 0.653256C41.9457 1.68284 39.9628 2.40756 37.8951 2.7959C36.5045 1.37543 34.6628 0.433922 32.6557 0.117546C30.6486 -0.198829 28.5885 0.127629 26.7952 1.04624C25.0019 1.96484 23.5757 3.42421 22.7381 5.19775C21.9006 6.97129 21.6984 8.95978 22.1631 10.8545C18.4921 10.6782 14.9008 9.76526 11.6224 8.17507C8.34405 6.58488 5.45177 4.35294 3.13331 1.62408C2.34057 2.93242 1.88474 4.44933 1.88474 6.06485C1.88386 7.51918 2.25819 8.95124 2.97452 10.234C3.69086 11.5167 4.72704 12.6104 5.99115 13.4181C4.52512 13.3735 3.09144 12.9945 1.80943 12.3126V12.4264C1.80929 14.4662 2.54675 16.4432 3.89669 18.0219C5.24663 19.6007 7.1259 20.684 9.21563 21.088C7.85564 21.4401 6.42981 21.492 5.0458 21.2397C5.6354 22.9948 6.78388 24.5295 8.33046 25.6291C9.87705 26.7287 11.7443 27.338 13.6708 27.3718C10.4004 29.8281 6.36153 31.1605 2.20382 31.1546C1.46733 31.1548 0.731456 31.1136 0 31.0314C4.22031 33.6275 9.13306 35.0053 14.1504 35C31.1349 35 40.4199 21.5412 40.4199 9.86851C40.4199 9.48928 40.41 9.10626 40.3922 8.72703C42.1982 7.47742 43.7572 5.93002 44.996 4.15733L45 4.15164Z" fill="#0066F9"/>
</svg>
