<svg width="76" height="76" viewBox="0 0 76 76" fill="none" xmlns="http://www.w3.org/2000/svg">
<path d="M0.494594 59.2629V30.0587H11.055V28.3504H0.494594V1.70774H11.7227V0H0V60.9707H11.8216V59.2629H0.494742H0.494594ZM21.3434 17.0784L16.966 36.9752L12.6873 17.0789H12.0442L16.6691 38.2565L11.5989 60.9702H12.1925L16.9657 39.5363L21.7636 60.9702H22.3819L17.2872 38.2555L21.9367 17.0779H21.3432L21.3434 17.0784ZM23.8659 76V48.6746H23.9154C24.2122 52.6595 24.7975 55.8618 25.6714 58.2814C26.5452 60.7006 27.6581 61.9106 29.01 61.9106C29.8839 61.9106 30.6589 61.2987 31.3349 60.0748C32.0108 58.8509 32.5755 57.1857 33.029 55.0792C33.4823 52.9727 33.8286 50.5249 34.0677 47.7352C34.3067 44.946 34.4264 42.0138 34.4264 38.9402C34.4264 35.638 34.3026 32.5921 34.0553 29.8029C33.808 27.0132 33.4494 24.5936 32.9795 22.5445C32.5096 20.4949 31.9408 18.9004 31.273 17.7626C30.6053 16.6238 29.8509 16.0544 29.01 16.0544C28.367 16.0544 27.7694 16.3819 27.2171 17.0364C26.6647 17.6914 26.1743 18.616 25.7456 19.8117C25.3144 21.0166 24.9391 22.442 24.6326 24.0385C24.3194 25.6612 24.0803 27.4402 23.9154 29.376H23.8659V17.0784H23.3713V76H23.8659V76ZM29.01 60.2875C27.4603 60.2875 26.2154 58.4516 25.2756 54.7799C24.3359 51.1081 23.8659 45.8276 23.8659 38.9392C23.8659 36.0926 23.9814 33.3885 24.2122 30.8269C24.4431 28.2653 24.7769 26.0164 25.2137 24.0811C25.6507 22.1452 26.1908 20.6082 26.8336 19.4699C27.4767 18.331 28.2022 17.7616 29.01 17.7616C29.8345 17.7616 30.5559 18.331 31.1741 19.4699C31.7923 20.6082 32.3036 22.1596 32.7075 24.1236C33.1114 26.0876 33.4164 28.3366 33.6226 30.8695C33.8286 33.4029 33.9316 36.0926 33.9316 38.9392C33.9316 41.5013 33.8369 44.0491 33.6472 46.582C33.4577 49.1154 33.1649 51.3926 32.7692 53.414C32.3736 55.4344 31.8667 57.0852 31.2483 58.3665C30.6299 59.6473 29.8839 60.2875 29.01 60.2875V60.2875ZM37.1468 60.9707V36.1213C37.1468 33.7304 37.2456 31.3958 37.4437 29.1192C37.6414 26.842 37.9464 24.835 38.3586 23.0991C38.7708 21.3626 39.2942 19.9962 39.9291 18.9999C40.5638 18.0035 41.3182 17.5909 42.192 17.7616V16.0539C41.4335 15.9975 40.77 16.2814 40.2012 16.9077C39.6322 17.534 39.1418 18.3879 38.7296 19.4699C38.3174 20.5513 37.9877 21.8177 37.7404 23.2697C37.4933 24.7194 37.3099 26.2878 37.1962 27.9235H37.1468V17.0784H36.6522V60.9712H37.1468V60.9707ZM42.8103 39.3661H53.4448C53.4779 36.3489 53.3913 33.4459 53.1852 30.6563C52.9791 27.8666 52.6493 25.3901 52.196 23.2272C51.7425 21.0638 51.1572 19.3274 50.44 18.0179C49.7227 16.7084 48.8695 16.0539 47.8803 16.0539C47.1712 16.0539 46.4788 16.5664 45.8028 17.5914C45.1268 18.616 44.5332 20.11 44.0221 22.074C43.511 24.038 43.0988 26.4433 42.7856 29.2904C42.4724 32.1364 42.3157 35.3812 42.3157 39.0248C42.3157 42.2696 42.4228 45.3012 42.6372 48.1191C42.8515 50.9369 43.1812 53.3853 43.6264 55.4631C44.0717 57.5408 44.6447 59.1491 45.3453 60.2875C46.0459 61.4263 46.891 61.967 47.8803 61.9101C49.3311 61.9101 50.5513 60.5007 51.5405 57.6833C52.5298 54.8649 53.1151 50.8944 53.2965 45.7707H52.8019C52.5875 50.6099 52.0392 54.2391 51.1572 56.6583C50.275 59.0779 49.1664 60.2875 47.8307 60.2875C46.9239 60.2875 46.1572 59.7468 45.5307 58.6653C44.9043 57.5839 44.3931 56.1032 43.9973 54.2248C43.6017 52.3459 43.309 50.14 43.1195 47.6065C42.9298 45.0736 42.8267 42.3265 42.8103 39.3661ZM52.9502 37.6584H42.8104C42.8597 34.5843 43.0246 31.8233 43.3049 29.3755C43.5853 26.9271 43.952 24.835 44.4055 23.0991C44.8589 21.3626 45.3865 20.0393 45.9883 19.128C46.5901 18.2172 47.2373 17.7616 47.9297 17.7616C48.7541 17.7616 49.4794 18.2885 50.1061 19.3417C50.7325 20.395 51.2561 21.8326 51.6766 23.6541C52.097 25.4756 52.4143 27.5965 52.6287 30.0156C52.843 32.4352 52.9502 34.983 52.9502 37.6584ZM63.7085 30.0587H64.2031C64.2031 25.1625 63.7909 21.6045 62.9666 19.3843C62.142 17.164 61.0209 16.0539 59.603 16.0539C58.8115 16.0539 58.1439 16.3957 57.5997 17.0789C57.0557 17.7616 56.6105 18.6442 56.2642 19.7256C55.918 20.807 55.6707 22.0028 55.5223 23.3123C55.3739 24.6218 55.2997 25.8744 55.2997 27.0696C55.2997 29.4605 55.4233 31.3676 55.6707 32.7909C55.918 34.2142 56.3055 35.3244 56.833 36.1213C57.1958 36.6902 57.6079 37.2028 58.0696 37.6589C58.5313 38.114 59.0671 38.5979 59.6772 39.1099C60.2212 39.566 60.7571 40.0211 61.2848 40.4763C61.8123 40.9319 62.2781 41.5439 62.682 42.3121C63.0861 43.0809 63.4158 44.0629 63.6714 45.2587C63.9268 46.4539 64.0546 48.0196 64.0546 49.9549C64.0546 51.8339 63.927 53.4278 63.6714 54.7368C63.4179 56.0395 63.0844 57.1331 62.6945 57.9396C62.2988 58.7648 61.8576 59.3624 61.3713 59.7324C60.8849 60.1024 60.4109 60.2875 59.9493 60.2875C58.4489 60.2875 57.2988 59.1348 56.4992 56.8295C55.6995 54.5236 55.2998 50.8944 55.2998 45.9413H54.8051C54.8051 51.4638 55.2379 55.5056 56.1034 58.0677C56.9691 60.6293 58.251 61.9101 59.9493 61.9101C60.4933 61.9101 61.0415 61.6964 61.594 61.2695C62.1462 60.8425 62.6409 60.1455 63.0778 59.1773C63.5109 58.2229 63.8748 56.9376 64.1412 55.4205C64.4133 53.8829 64.5494 52.0045 64.5494 49.7843C64.5494 47.6778 64.4297 45.97 64.1908 44.6605C63.9516 43.3515 63.6384 42.2696 63.2509 41.4157C62.8634 40.5619 62.4266 39.893 61.9401 39.4092C61.451 38.9225 60.9604 38.4527 60.4685 37.9997C59.8632 37.4514 59.2573 36.9106 58.6508 36.3776C58.1315 35.922 57.6493 35.3812 57.2041 34.7549C56.7754 34.1286 56.4333 33.2322 56.1777 32.0652C55.922 30.8982 55.7944 29.233 55.7944 27.0696C55.7944 26.6714 55.8273 25.9595 55.8933 24.9349C55.9592 23.9099 56.1159 22.871 56.3632 21.8177C56.6105 20.765 56.9896 19.8256 57.5008 18.9999C58.0119 18.1747 58.7127 17.7616 59.603 17.7616C60.2131 17.7616 60.7694 17.9897 61.2723 18.4448C61.7752 18.9004 62.2081 19.6262 62.5707 20.6225C62.9335 21.6189 63.2137 22.8853 63.4116 24.4224C63.6095 25.96 63.7085 27.8384 63.7085 30.0587V30.0587ZM75.1591 30.0587H75.6537C75.6537 25.1625 75.2416 21.6045 74.4172 19.3843C73.5928 17.164 72.4716 16.0539 71.0536 16.0539C70.2623 16.0539 69.5945 16.3957 69.0505 17.0789C68.5063 17.7616 68.0611 18.6442 67.715 19.7256C67.3687 20.807 67.1214 22.0028 66.9729 23.3123C66.8245 24.6218 66.7504 25.8744 66.7504 27.0696C66.7504 29.4605 66.8741 31.3676 67.1215 32.7909C67.3687 34.2142 67.7562 35.3244 68.2838 36.1213C68.6466 36.6902 69.0586 37.2028 69.5203 37.6589C69.9819 38.114 70.5178 38.5979 71.1278 39.1099C71.672 39.566 72.2079 40.0211 72.7354 40.4763C73.2631 40.9319 73.7288 41.5439 74.1328 42.3121C74.5367 43.0809 74.8665 44.0629 75.122 45.2587C75.3776 46.4539 75.5054 48.0196 75.5054 49.9549C75.5054 51.8339 75.3776 53.4278 75.122 54.7368C74.8686 56.0394 74.5351 57.133 74.1453 57.9396C73.7494 58.7648 73.3084 59.3624 72.822 59.7324C72.3357 60.1024 71.8616 60.2875 71.3999 60.2875C69.8995 60.2875 68.7496 59.1348 67.9499 56.8295C67.1502 54.5236 66.7504 50.8944 66.7504 45.9413H66.2558C66.2558 51.4638 66.6885 55.5056 67.5542 58.0677C68.4197 60.6293 69.7016 61.9101 71.3999 61.9101C71.9441 61.9101 72.4923 61.6964 73.0446 61.2695C73.5968 60.8425 74.0915 60.1455 74.5285 59.1773C74.9617 58.2229 75.3255 56.9376 75.5919 55.4205C75.864 53.8829 76 52.0045 76 49.7843C76 47.6778 75.8805 45.97 75.6414 44.6605C75.4024 43.3515 75.0892 42.2696 74.7016 41.4157C74.3142 40.5619 73.8772 39.893 73.3909 39.4092C72.9017 38.9225 72.4112 38.4527 71.9193 37.9997C71.314 37.4514 70.708 36.9106 70.1015 36.3776C69.5822 35.922 69.0999 35.3812 68.6547 34.7549C68.226 34.1286 67.8839 33.2322 67.6284 32.0652C67.3728 30.8982 67.245 29.233 67.245 27.0696C67.245 26.6714 67.278 25.9595 67.344 24.9349C67.4099 23.9099 67.5667 22.871 67.8138 21.8177C68.0611 20.765 68.4404 19.8256 68.9514 18.9999C69.4627 18.1747 70.1633 17.7616 71.0538 17.7616C71.6638 17.7616 72.2202 17.9897 72.7231 18.4448C73.226 18.9004 73.6587 19.6262 74.0215 20.6225C74.3843 21.6189 74.6645 22.8853 74.8624 24.4224C75.0602 25.96 75.1592 27.8384 75.1592 30.0587H75.1591Z" fill="#222222"/>
</svg>
