<svg width="64" height="76" viewBox="0 0 77 76" fill="none" xmlns="http://www.w3.org/2000/svg">
<path d="M76.4449 14.9358L69.5212 69.8873L38.3985 76L7.36154 69.8957L0.444946 14.9358H76.4449Z" fill="#E44D26"/>
<path d="M38.4449 71.3276L63.5937 66.3881L69.5102 19.4295H38.4449V71.3276Z" fill="#F16529"/>
<path d="M24.9854 32.9109H38.445V26.1703H14.5874L14.815 27.9787L17.1536 46.554H38.445V39.8134H25.855L24.9854 32.9109V32.9109Z" fill="#EBEBEB"/>
<path d="M27.1298 49.9244H17.5787L18.9116 60.5082L38.4012 64.3411L38.445 64.3326V57.3195L38.4033 57.3274L27.8072 55.3003L27.1298 49.9244V49.9244Z" fill="#EBEBEB"/>
<path d="M7.51587 0H12.351V3.38434H16.774V0H21.6094V10.2486H16.7743V6.8168H12.3513V10.2486H7.51617V0H7.51587Z" fill="black"/>
<path d="M27.9674 3.39869H23.7114V0H37.062V3.39869H32.8034V10.2486H27.9683V3.39869H27.968H27.9674Z" fill="black"/>
<path d="M39.1808 0H44.2223L47.3236 3.6011L50.4219 0H55.4655V10.2486H50.65V5.16885L47.3236 8.81279H47.2402L43.9116 5.16885V10.2486H39.1808V0Z" fill="black"/>
<path d="M57.8718 0H62.7083V6.86112H69.5079V10.2486H57.8715V0H57.8718Z" fill="black"/>
<path d="M38.4122 46.554H50.1281L49.0234 55.2961L38.4119 57.3252V64.3379L57.917 60.5082L58.06 59.3693L60.2961 41.6235L60.5282 39.8134H38.4122V46.554Z" fill="white"/>
<path d="M38.4122 32.8945V32.9109H61.394L61.5846 31.3959L62.0184 27.9787L62.2457 26.1703H38.4122V32.8947V32.8945Z" fill="white"/>
</svg>
