<svg width="25" height="25" viewBox="0 0 25 25" fill="none" xmlns="http://www.w3.org/2000/svg">
<path d="M5.68183 25V12.1246L2.68623 8.47151L0 6.44432V22.7278C0 23.985 0.764159 25 1.70459 25H5.68183Z" fill="#4285F4"/>
<path d="M19.3181 25H23.2954C24.2386 25 24.9999 23.9813 24.9999 22.7278V6.44444L21.9574 8.76635L19.3181 12.1246V25Z" fill="#34A853"/>
<path d="M5.68191 12.1246L5.27429 7.09376L5.68191 2.27878L12.5001 9.09517L19.3182 2.27878L19.7743 6.8338L19.3182 12.1246L12.5001 18.941L5.68191 12.1246Z" fill="#EA4335"/>
<path d="M19.3181 2.27873V12.1245L24.9999 6.44427V3.41475C24.9999 0.604959 22.5937 -0.996824 20.9091 0.688269L19.3181 2.27873Z" fill="#FBBC04"/>
<path d="M0 6.44412L2.61318 9.0567L5.68183 12.1244V2.27857L4.09082 0.688116C2.40332 -0.997108 0 0.604805 0 3.41447V6.44399V6.44412Z" fill="#C5221F"/>
</svg>
