<svg width="76" height="76" viewBox="0 0 76 76" fill="none" xmlns="http://www.w3.org/2000/svg">
<path d="M38 75.9997C36.8199 75.9997 35.7185 75.7205 34.6958 75.2317L24.2318 69.7159C22.6584 68.9479 23.4451 68.6686 23.9171 68.529C26.0413 67.9006 26.4346 67.7609 28.6375 66.6436C28.8738 66.504 29.1885 66.5738 29.4242 66.7134L37.4493 70.9726C37.764 71.1122 38.1573 71.1122 38.3934 70.9726L69.7849 54.8441C70.0996 54.7045 70.257 54.4252 70.257 54.0761V21.8885C70.257 21.5394 70.0996 21.2601 69.7849 21.1205L38.3934 5.06154C38.0787 4.9219 37.6853 4.9219 37.4493 5.06154L6.05773 21.1207C5.74305 21.2604 5.5857 21.6094 5.5857 21.8887V54.0761C5.5857 54.3554 5.74305 54.7045 6.05773 54.8441L14.6336 59.2426C19.2755 61.3372 22.1861 58.8935 22.1861 56.4499V24.6812C22.1861 24.2623 22.5797 23.8434 23.1304 23.8434H27.143C27.615 23.8434 28.087 24.1924 28.087 24.6812V56.4497C28.087 61.9655 24.7039 65.1772 18.8032 65.1772C16.9937 65.1772 15.5776 65.1772 11.5654 63.4317L3.30422 59.2426C1.25875 58.1951 0 56.2402 0 54.1457V21.9585C0 19.864 1.25875 17.9091 3.30422 16.8616L34.6958 0.733088C36.6626 -0.244363 39.3374 -0.244363 41.3042 0.733088L72.6958 16.8616C74.7412 17.9088 76 19.8637 76 21.9585V54.1459C76 56.2405 74.7412 58.1954 72.6958 59.2426L41.3042 75.3716C40.2815 75.7905 39.1014 76 38 76V75.9997ZM47.6769 53.8664C33.9088 53.8664 31.0766 48.281 31.0766 43.5331C31.0766 43.1142 31.4699 42.6953 32.0206 42.6953H36.1116C36.5836 42.6953 36.9773 42.9745 36.9773 43.3934C37.6066 47.0938 39.4161 48.9093 47.7556 48.9093C54.3643 48.9093 57.1968 47.5828 57.1968 44.441C57.1968 42.6254 56.4101 41.2989 46.1035 40.391C37.528 39.623 32.178 37.9474 32.178 31.8732C32.178 26.2174 37.5277 22.8662 46.4969 22.8662C56.5672 22.8662 61.5238 25.9382 62.1532 32.6409C62.1532 32.8504 62.0745 33.0599 61.9171 33.2693C61.7598 33.4089 61.5238 33.5486 61.2878 33.5486H57.1968C56.8032 33.5486 56.4101 33.2693 56.3311 32.9202C55.3871 29.0802 52.9483 27.8235 46.4969 27.8235C39.259 27.8235 38.3934 30.0577 38.3934 31.7333C38.3934 33.7583 39.4161 34.3864 49.1717 35.5035C58.8489 36.6206 63.4119 38.2266 63.4119 44.2312C63.3332 50.3755 57.6689 53.8664 47.6769 53.8664V53.8664Z" fill="#539E43"/>
</svg>
