<svg width="76" height="76" viewBox="0 0 76 76" fill="none" xmlns="http://www.w3.org/2000/svg">
<path d="M62.4871 24.6333C61.6783 24.3214 60.8627 24.0325 60.0409 23.7668C60.1789 23.1328 60.306 22.5065 60.4188 21.8912C62.2707 11.7872 61.0601 3.64719 56.9249 0.967114C52.9601 -1.60218 46.4761 1.07689 39.9276 7.48244C39.2822 8.11487 38.6512 8.76552 38.035 9.43377C37.6226 8.98941 37.2028 8.55366 36.776 8.12677C29.9128 1.27777 23.0336 -1.60885 18.9029 1.07889C14.9417 3.6562 13.7688 11.3084 15.436 20.8841C15.6019 21.8325 15.7892 22.776 15.9977 23.7137C15.024 24.0247 14.0843 24.3557 13.1851 24.7081C5.13861 27.8613 0 32.8027 0 37.9282C0 43.222 5.51653 48.5318 13.8973 51.7514C14.5768 52.0113 15.2619 52.2522 15.952 52.4738C15.7279 53.4837 15.5289 54.5005 15.3553 55.5229C13.7658 64.9325 15.007 72.4038 18.9575 74.9648C23.0378 77.6095 29.8861 74.8914 36.5542 68.3397C37.0949 67.807 37.6237 67.2593 38.1401 66.697C38.8074 67.4206 39.4924 68.1231 40.1945 68.8038C46.6539 75.0509 53.0332 77.5735 56.9798 75.0055C61.0562 72.3531 62.3812 64.3269 60.6611 54.5619C60.5256 53.7969 60.3736 53.0357 60.2054 52.2789C60.6863 52.1188 61.1583 51.9539 61.6185 51.7824C70.3312 48.5381 76 43.2927 76 37.9282C76 32.784 70.6954 27.8092 62.4871 24.6333V24.6333ZM60.5975 48.3189C60.1819 48.4734 59.7556 48.6225 59.321 48.7677C58.3591 45.3452 57.0612 41.7061 55.4726 37.9459C56.9884 34.2755 58.2365 30.6828 59.1713 27.2827C59.9489 27.5356 60.7032 27.8022 61.4306 28.0835C68.4635 30.805 72.7534 34.8281 72.7534 37.9282C72.7534 41.2303 68.1203 45.517 60.5975 48.3189V48.3189ZM57.4762 55.2707C58.2368 59.5884 58.3451 63.4924 57.8413 66.5445C57.3889 69.287 56.4787 71.1152 55.3529 71.8476C52.958 73.4059 47.8361 71.3805 42.3121 66.0377C41.6591 65.4048 41.0218 64.7517 40.4011 64.079C42.5428 61.4466 44.683 58.3865 46.7718 54.9877C50.4459 54.6213 53.917 54.022 57.0647 53.2042C57.2197 53.9073 57.3574 54.5966 57.4762 55.2707V55.2707ZM25.9101 71.5783C23.5701 72.5069 21.7063 72.5336 20.5797 71.8036C18.1824 70.2496 17.1858 64.2505 18.5452 56.2036C18.7068 55.2527 18.8918 54.3071 19.1 53.3677C22.2131 54.1418 25.6589 54.6984 29.3416 55.0341C31.4447 58.3598 33.6466 61.4166 35.8658 64.0933C35.3942 64.6062 34.9114 65.106 34.4179 65.5922C31.469 68.4892 28.5143 70.5446 25.9101 71.5783V71.5783ZM14.9477 48.2985C11.2418 46.8747 8.18128 45.0245 6.08356 43.0054C4.19841 41.1913 3.24692 39.3897 3.24692 37.9282C3.24692 34.8177 7.37259 30.8503 14.2539 28.1539C15.089 27.8269 15.963 27.5183 16.8699 27.2286C17.8211 30.7055 19.0686 34.3409 20.574 38.017C19.049 41.7475 17.7837 45.4409 16.8233 48.9589C16.1934 48.7561 15.568 48.5359 14.9477 48.2985V48.2985ZM18.6224 20.1831C17.1941 11.979 18.1426 5.79038 20.5298 4.23712C23.0722 2.58277 28.6945 4.94151 34.6204 10.8556C35.0068 11.2421 35.387 11.6364 35.7607 12.0384C33.5525 14.7035 31.3708 17.7376 29.2864 21.0436C25.712 21.416 22.2906 22.014 19.1449 22.8151C18.9511 21.943 18.7768 21.0655 18.6224 20.1834V20.1831ZM51.4054 29.2817C50.6624 27.8392 49.8918 26.4149 49.0942 25.0097C51.5191 25.3544 53.8424 25.8119 56.0242 26.3711C55.3693 28.7308 54.5529 31.1977 53.5919 33.727C52.8894 32.229 52.1605 30.747 51.4054 29.2817V29.2817ZM38.0365 14.6464C39.534 16.47 41.0338 18.5057 42.5089 20.7146C39.5164 20.5558 36.5189 20.5551 33.5264 20.7126C35.003 18.5241 36.5156 16.491 38.0365 14.6464ZM24.5818 29.3068C23.8362 30.7602 23.1208 32.233 22.4363 33.7239C21.4911 31.2037 20.6821 28.7255 20.0215 26.3324C22.1899 25.7872 24.5023 25.3414 26.9117 25.003C26.1052 26.4168 25.3284 27.8517 24.5818 29.3064V29.3068ZM26.9809 51.1131C24.4916 50.8007 22.1445 50.378 19.9767 49.8474C20.6477 47.4116 21.4745 44.8807 22.4402 42.3064C23.1274 43.7985 23.8457 45.2721 24.5946 46.7262C25.3647 48.2211 26.1621 49.6853 26.9809 51.1131ZM38.1262 61.467C36.5872 59.6011 35.0523 57.5366 33.5534 55.3164C35.0087 55.3804 36.4922 55.4131 38 55.4131C39.5491 55.4131 41.0804 55.3741 42.5876 55.2987C41.1077 57.559 39.6135 59.6264 38.1262 61.467ZM53.6225 42.1749C54.6384 44.7776 55.4945 47.2952 56.1744 49.6893C53.971 50.2545 51.5918 50.7097 49.085 51.0477C49.8883 49.6164 50.6662 48.1673 51.4182 46.7012C52.1827 45.211 52.9177 43.7019 53.6225 42.1749V42.1749ZM48.6059 44.878C47.4546 47.1258 46.2387 49.3309 44.9599 51.4898C42.6436 51.6742 40.3221 51.7658 38 51.7644C35.6348 51.7644 33.3343 51.6816 31.119 51.5201C29.8069 49.3662 28.5678 47.1573 27.4042 44.898H27.4045C26.2465 42.6508 25.1648 40.3549 24.1618 38.0153C25.1622 35.6752 26.2406 33.3783 27.3947 31.1293L27.3944 31.1296C28.5481 28.8801 29.7773 26.6806 31.0795 24.5359C33.3397 24.3437 35.6574 24.2436 37.9997 24.2436H38C40.353 24.2436 42.6737 24.3447 44.9332 24.5382C46.2223 26.6797 47.4437 28.8716 48.5952 31.1099C49.7531 33.354 50.8458 35.6397 51.8715 37.9636C50.8563 40.3113 49.7671 42.6175 48.6059 44.878V44.878ZM55.3034 4.12835C57.8482 5.77803 58.838 12.4305 57.239 21.1544C57.1369 21.711 57.0223 22.2779 56.8976 22.8528C53.7442 22.0347 50.3203 21.4264 46.7355 21.0483C44.6473 17.7059 42.4834 14.6671 40.3112 12.0364C40.8805 11.4196 41.4633 10.8188 42.0592 10.2346C47.6701 4.74665 52.9141 2.57976 55.3034 4.12835V4.12835ZM38 30.3004C41.748 30.3004 44.7866 33.7156 44.7866 37.9282C44.7866 42.1409 41.748 45.5561 38 45.5561C34.252 45.5561 31.2134 42.1409 31.2134 37.9282C31.2134 33.7156 34.252 30.3004 38 30.3004V30.3004Z" fill="#00D8FF"/>
</svg>
